<svg width="61" height="61" viewBox="0 0 61 61" fill="none" xmlns="http://www.w3.org/2000/svg">
<mask id="mask0_2004_19" style="mask-type:luminance" maskUnits="userSpaceOnUse" x="0" y="0" width="61" height="61">
<path d="M0 3.8147e-06H61V61H0V3.8147e-06Z" fill="white"/>
</mask>
<g mask="url(#mask0_2004_19)">
<path d="M14.9821 55.3627V60.1077" stroke="#FFB34A" stroke-width="1.5" stroke-miterlimit="10" stroke-linecap="round" stroke-linejoin="round"/>
<path d="M46.012 55.3627V60.1077" stroke="#FFB34A" stroke-width="1.5" stroke-miterlimit="10" stroke-linecap="round" stroke-linejoin="round"/>
</g>
<path d="M12.0981 8.66836V14.9343" stroke="#FFB34A" stroke-width="1.5" stroke-miterlimit="10" stroke-linecap="round" stroke-linejoin="round"/>
<mask id="mask1_2004_19" style="mask-type:luminance" maskUnits="userSpaceOnUse" x="0" y="0" width="61" height="61">
<path d="M0 3.8147e-06H61V61H0V3.8147e-06Z" fill="white"/>
</mask>
<g mask="url(#mask1_2004_19)">
<path d="M7.25305 55.4171V57.2067C7.25305 58.8088 8.5518 60.1077 10.1541 60.1077H50.8441C52.4462 60.1077 53.7451 58.8088 53.7451 57.2067V48.5763C53.7451 44.9383 51.3473 41.7356 47.8568 40.7107L44.1504 39.6227L30.4991 47.7347L16.8485 39.6232L13.1419 40.7111C9.65099 41.7357 7.25305 44.9386 7.25305 48.5768V51.2398" stroke="#FFB34A" stroke-width="1.5" stroke-miterlimit="10" stroke-linecap="round" stroke-linejoin="round"/>
<path d="M44.1505 39.6227L35.8459 34.1985C35.8459 37.6689 34.8385 41.0648 32.9459 43.9737L30.4991 47.7346" stroke="#FFB34A" stroke-width="1.5" stroke-miterlimit="10" stroke-linecap="round" stroke-linejoin="round"/>
<path d="M16.8477 39.6227L25.1524 34.1985C25.1524 37.6689 26.1597 41.0648 28.0522 43.9737L30.4991 47.7346" stroke="#FFB34A" stroke-width="1.5" stroke-miterlimit="10" stroke-linecap="round" stroke-linejoin="round"/>
<path d="M22.97 15.0577V17.7558C22.97 18.8383 22.0924 19.716 21.0098 19.716H19.0632V22.9214C19.0632 23.7405 19.7272 24.4044 20.5463 24.4044C20.8047 24.4044 21.015 24.6069 21.0313 24.8648C21.3441 29.8231 25.4619 33.7482 30.4989 33.7482C35.5361 33.7482 39.6541 29.8231 39.9668 24.8648C39.9831 24.6069 40.1933 24.4044 40.4517 24.4044C41.2708 24.4044 41.9349 23.7405 41.9349 22.9214V19.716H39.9884C38.9057 19.716 38.0282 18.8383 38.0282 17.7558V15.0577" stroke="#FFB34A" stroke-width="1.5" stroke-miterlimit="10" stroke-linecap="round" stroke-linejoin="round"/>
<path d="M25.1483 32.0932V34.2009L25.1522 34.1984" stroke="#FFB34A" stroke-width="1.5" stroke-miterlimit="10" stroke-linecap="round" stroke-linejoin="round"/>
<path d="M35.8458 34.1989V32.0959" stroke="#FFB34A" stroke-width="1.5" stroke-miterlimit="10" stroke-linecap="round" stroke-linejoin="round"/>
<path d="M36.1352 8.90282L32.6359 8.46986C31.2155 8.29425 29.7789 8.29425 28.3586 8.46998L20.4556 9.44788L18.3285 9.71107V14.1809C18.3285 14.616 18.6458 14.9761 19.0613 15.045C19.1084 15.0527 19.1562 15.0577 19.2054 15.0577H41.7926C41.8407 15.0577 41.8872 15.0529 41.933 15.0456C42.3505 14.9782 42.6698 14.6173 42.6698 14.1809V9.71107L40.5384 9.44741L40.2879 9.41655" stroke="#FFB34A" stroke-width="1.5" stroke-miterlimit="10" stroke-linecap="round" stroke-linejoin="round"/>
<path d="M41.933 19.7159V15.0455" stroke="#FFB34A" stroke-width="1.5" stroke-miterlimit="10" stroke-linecap="round" stroke-linejoin="round"/>
<path d="M19.0614 15.0449L19.0633 19.7159" stroke="#FFB34A" stroke-width="1.5" stroke-miterlimit="10" stroke-linecap="round" stroke-linejoin="round"/>
<path d="M42.6675 9.71082L48.7884 8.66834C49.8343 8.49023 49.9362 7.02766 48.9252 6.70621L30.8039 0.94231C30.6044 0.878808 30.39 0.878808 30.1904 0.94231L12.0689 6.70621C11.058 7.02766 11.16 8.49023 12.2058 8.66834L18.3285 9.71106" stroke="#FFB34A" stroke-width="1.5" stroke-miterlimit="10" stroke-linecap="round" stroke-linejoin="round"/>
<path d="M10.2032 18.3793L8.99596 25.4653C8.88194 26.1342 9.39723 26.7446 10.0759 26.7446H14.1206C14.7989 26.7446 15.3142 26.1342 15.2003 25.4653L13.9932 18.3793" stroke="#FFB34A" stroke-width="1.5" stroke-miterlimit="10" stroke-linecap="round" stroke-linejoin="round"/>
<path d="M13.9931 15.8915C13.9931 15.3629 13.5646 14.9343 13.0359 14.9343H11.1603C10.6317 14.9343 10.2031 15.3629 10.2031 15.8915V18.3793H13.9931V15.8915Z" stroke="#FFB34A" stroke-width="1.5" stroke-miterlimit="10" stroke-linecap="round" stroke-linejoin="round"/>
<path d="M35.0559 39.4538C33.652 39.763 32.1134 39.9343 30.4992 39.9343C28.8848 39.9343 27.3463 39.763 25.9424 39.4538" stroke="#FFB34A" stroke-width="1.5" stroke-miterlimit="10" stroke-linecap="round" stroke-linejoin="round"/>
</g>
</svg>
