<svg width="61" height="61" viewBox="0 0 61 61" fill="none" xmlns="http://www.w3.org/2000/svg">
<path d="M29.7042 58.9727C29.9619 59.0525 30.2302 59.0933 30.5 59.0937C30.7633 59.0931 31.0251 59.0536 31.2768 58.9765C35.1087 57.8784 38.7295 56.1461 41.989 53.8515C42.1827 53.7009 42.3109 53.4815 42.3468 53.2388C42.3828 52.9961 42.3238 52.7488 42.182 52.5486C42.0403 52.3483 41.8268 52.2104 41.586 52.1635C41.3452 52.1166 41.0956 52.1645 40.8891 52.297C37.7988 54.4704 34.366 56.1106 30.7335 57.1494C30.5754 57.1999 30.4055 57.1999 30.2474 57.1494C25.503 55.8026 21.1154 53.4226 17.3993 50.1801C17.3069 50.0891 17.1969 50.0179 17.0759 49.9709C16.955 49.9239 16.8258 49.9021 16.6962 49.9067C16.5665 49.9114 16.4392 49.9425 16.322 49.9981C16.2048 50.0537 16.1002 50.1327 16.0146 50.2301C15.929 50.3276 15.8641 50.4415 15.8241 50.5649C15.784 50.6882 15.7695 50.8185 15.7816 50.9477C15.7936 51.0768 15.8319 51.2022 15.894 51.316C15.9562 51.4299 16.041 51.5298 16.1431 51.6098C20.0654 55.0338 24.6963 57.5482 29.7042 58.9727Z" fill="#FFB34A"/>
<path d="M5.30797 14.3474C5.18387 14.3308 5.0577 14.3388 4.93668 14.3709C4.81566 14.4031 4.70217 14.4588 4.60268 14.5348C4.50319 14.6109 4.41966 14.7057 4.35685 14.8141C4.29405 14.9224 4.25321 15.042 4.23666 15.1662C3.56471 20.1901 2.76408 33.0735 9.81721 44.2069C9.88417 44.3127 9.97131 44.4042 10.0737 44.4763C10.176 44.5484 10.2915 44.5996 10.4137 44.6271C10.5358 44.6545 10.6622 44.6576 10.7855 44.6362C10.9088 44.6148 11.0268 44.5694 11.1325 44.5024C11.2383 44.4354 11.3298 44.3483 11.4019 44.2459C11.474 44.1436 11.5252 44.0281 11.5527 43.9059C11.5801 43.7838 11.5832 43.6574 11.5618 43.5341C11.5404 43.4108 11.495 43.2928 11.428 43.1871C4.70846 32.5845 5.48144 20.2358 6.1248 15.4187C6.15841 15.1684 6.09125 14.9149 5.93809 14.714C5.78493 14.5132 5.5583 14.3813 5.30797 14.3474Z" fill="#FFB34A"/>
<path d="M12.4277 46.2713C12.3301 46.3498 12.2489 46.4468 12.1888 46.5567C12.1286 46.6666 12.0907 46.7873 12.0773 46.9118C12.0638 47.0364 12.0751 47.1623 12.1103 47.2826C12.1456 47.4028 12.2042 47.5148 12.2829 47.6124C12.5688 47.9669 12.8748 48.3215 13.1893 48.6761C13.2723 48.7699 13.3731 48.8465 13.4857 48.9015C13.5984 48.9564 13.7207 48.9886 13.8458 48.9963C13.9709 49.004 14.0963 48.9869 14.2148 48.9461C14.3333 48.9053 14.4427 48.8416 14.5365 48.7585C14.6304 48.6755 14.707 48.5747 14.7619 48.4621C14.8169 48.3494 14.8491 48.2271 14.8568 48.102C14.8644 47.9769 14.8474 47.8515 14.8066 47.733C14.7658 47.6144 14.702 47.5051 14.619 47.4113C14.3245 47.0786 14.0385 46.7441 13.7716 46.4162C13.6931 46.3181 13.596 46.2366 13.4859 46.1762C13.3757 46.1158 13.2547 46.0778 13.1298 46.0643C13.0049 46.0509 12.8786 46.0622 12.7581 46.0977C12.6376 46.1333 12.5253 46.1923 12.4277 46.2713Z" fill="#FFB34A"/>
<path d="M54.3167 12.0275C50.8537 11.4248 47.4609 10.4715 44.1907 9.1824C39.9131 7.48935 35.8797 5.23482 32.1966 2.47812C31.7071 2.10997 31.1111 1.91089 30.4986 1.91089C29.8861 1.91089 29.2902 2.10997 28.8006 2.47812C26.9657 3.85079 25.0426 5.10144 23.0437 6.222C22.9343 6.2831 22.8379 6.36519 22.7603 6.46357C22.6826 6.56196 22.6251 6.6747 22.591 6.79535C22.557 6.91599 22.547 7.04217 22.5618 7.16665C22.5766 7.29114 22.6158 7.41148 22.6772 7.52079C22.7385 7.63011 22.8209 7.72624 22.9194 7.80369C23.018 7.88114 23.1309 7.93839 23.2516 7.97215C23.3723 8.00591 23.4985 8.01552 23.623 8.00044C23.7474 7.98536 23.8677 7.94587 23.9768 7.88425C26.05 6.71986 28.0445 5.42049 29.9472 3.99454C30.1055 3.87289 30.2995 3.80693 30.4991 3.80693C30.6987 3.80693 30.8927 3.87289 31.0509 3.99454C34.8706 6.85543 39.0541 9.19524 43.4911 10.9524C46.8847 12.2908 50.4055 13.2808 53.9993 13.907C54.1949 13.9402 54.3746 14.0354 54.5119 14.1785C54.6492 14.3217 54.7368 14.5052 54.7618 14.7019C55.3747 18.7299 56.3078 29.178 51.7404 39.1629C51.686 39.277 51.6547 39.4008 51.6486 39.5271C51.6424 39.6534 51.6615 39.7796 51.7046 39.8985C51.7477 40.0173 51.814 40.1264 51.8996 40.2194C51.9853 40.3124 52.0886 40.3874 52.2036 40.44C52.3185 40.4927 52.4428 40.522 52.5691 40.5261C52.6955 40.5303 52.8214 40.5093 52.9396 40.4643C53.0577 40.4194 53.1658 40.3514 53.2574 40.2642C53.349 40.1771 53.4224 40.0727 53.4732 39.9569C58.255 29.504 57.2857 18.6126 56.6471 14.4132C56.5607 13.8202 56.2886 13.27 55.8699 12.8413C55.4512 12.4127 54.9075 12.1278 54.3167 12.0275Z" fill="#FFB34A"/>
<path d="M29.5802 52.257C29.8748 52.3651 30.1861 52.4209 30.5 52.4219C30.8089 52.4215 31.1153 52.367 31.4054 52.2608C32.7204 51.7983 34.0024 51.247 35.2427 50.611C35.3541 50.5536 35.453 50.4749 35.5339 50.3794C35.6148 50.2838 35.6762 50.1732 35.7143 50.054C35.7525 49.9347 35.7669 49.8091 35.7565 49.6843C35.7462 49.5595 35.7113 49.438 35.654 49.3266C35.5967 49.2153 35.518 49.1163 35.4224 49.0354C35.3268 48.9545 35.2163 48.8932 35.097 48.855C34.9777 48.8168 34.8521 48.8025 34.7273 48.8128C34.6025 48.8232 34.481 48.858 34.3697 48.9153C33.2039 49.5148 31.9986 50.0338 30.7621 50.4689C30.5889 50.5366 30.3967 50.5366 30.2236 50.4689C25.9504 49.005 22.1097 46.4986 19.0491 43.1766C11.8549 35.3314 11.2211 24.828 11.4823 19.2856C11.4912 19.1378 11.5284 18.9932 11.5919 18.8595C11.6842 18.6345 11.687 18.3827 11.5998 18.1557C11.5125 17.9287 11.3418 17.7437 11.1225 17.6384C10.9033 17.5332 10.6521 17.5157 10.4204 17.5896C10.1887 17.6636 9.99405 17.8232 9.87625 18.036C9.70634 18.395 9.607 18.7833 9.58364 19.1798C9.30723 25.0386 9.98777 36.1158 17.648 44.469C20.9164 48.0162 25.0174 50.6929 29.5802 52.257Z" fill="#FFB34A"/>
<path d="M48.0128 35.2656C48.1174 35.3047 48.2281 35.3247 48.3397 35.3247C48.5351 35.3247 48.7257 35.2646 48.8858 35.1526C49.0459 35.0406 49.1677 34.8821 49.2347 34.6985C50.9711 29.7167 51.7127 24.4425 51.4173 19.175C51.399 18.7898 51.3044 18.412 51.1392 18.0636C50.974 17.7151 50.7413 17.4028 50.4547 17.1448C50.3639 17.0509 50.2547 16.9766 50.1339 16.9267C50.0132 16.8767 49.8835 16.8521 49.7528 16.8544C49.6222 16.8567 49.4934 16.8858 49.3745 16.94C49.2556 16.9941 49.149 17.0721 49.0616 17.1692C48.9741 17.2662 48.9075 17.3802 48.8659 17.5041C48.8243 17.628 48.8087 17.7591 48.8199 17.8893C48.8311 18.0195 48.869 18.146 48.9312 18.2609C48.9933 18.3758 49.0785 18.4767 49.1813 18.5574C49.281 18.6478 49.3619 18.7572 49.4191 18.879C49.4764 19.0009 49.5089 19.1329 49.5149 19.2674C49.7986 24.2797 49.0962 29.299 47.4476 34.0409C47.4042 34.1584 47.3844 34.2833 47.3893 34.4085C47.3942 34.5337 47.4238 34.6567 47.4763 34.7704C47.5288 34.8842 47.6032 34.9865 47.6952 35.0715C47.7873 35.1564 47.8952 35.2224 48.0128 35.2656Z" fill="#FFB34A"/>
<path d="M30.1292 10.5625C30.2639 10.5012 30.4119 10.4749 30.5595 10.4859C30.7071 10.4969 30.8495 10.5449 30.9737 10.6254C33.7172 12.3962 36.6052 13.9324 39.6071 15.2175C39.8377 15.3077 40.0943 15.3046 40.3226 15.2088C40.551 15.1131 40.7331 14.9322 40.8304 14.7046C40.9278 14.4769 40.9327 14.2203 40.8442 13.9891C40.7557 13.7579 40.5807 13.5702 40.3562 13.4657C37.453 12.2215 34.6597 10.7351 32.0059 9.02223C31.6167 8.77169 31.1712 8.62188 30.7097 8.58627C30.2481 8.55067 29.785 8.63039 29.3619 8.81826C29.1437 8.92768 28.9758 9.11664 28.8928 9.34619C28.8099 9.57574 28.8181 9.82839 28.9159 10.052C29.0136 10.2757 29.1935 10.4533 29.4183 10.5483C29.6432 10.6433 29.8959 10.6483 30.1244 10.5625H30.1292Z" fill="#FFB34A"/>
<path d="M45.2639 17.3231C45.3529 17.3499 45.4454 17.3634 45.5384 17.3631C45.7672 17.3629 45.9883 17.2805 46.1613 17.1308C46.3343 16.9811 46.4477 16.7741 46.4808 16.5477C46.5138 16.3214 46.4644 16.0906 46.3414 15.8977C46.2184 15.7048 46.0302 15.5625 45.811 15.4969C45.3506 15.3587 44.8912 15.2024 44.4308 15.0365C44.193 14.9508 43.9308 14.9631 43.702 15.0707C43.4732 15.1784 43.2965 15.3724 43.2108 15.6103C43.1252 15.8482 43.1375 16.1104 43.2451 16.3391C43.3527 16.5679 43.5468 16.7446 43.7846 16.8303C44.2783 17.0076 44.7711 17.1753 45.2639 17.3231Z" fill="#FFB34A"/>
<path d="M25.3636 28.0991C24.7971 27.544 24.0355 27.2331 23.2424 27.2331C22.4493 27.2331 21.6878 27.544 21.1212 28.0991L19.9279 29.3162C19.3727 29.889 19.0621 30.6554 19.0621 31.4531C19.0621 32.2509 19.3727 33.0173 19.9279 33.59L27.2308 41.0425C27.5066 41.3257 27.8364 41.5508 28.2006 41.7045C28.5648 41.8582 28.9561 41.9373 29.3515 41.9373C29.7468 41.9373 30.1381 41.8582 30.5023 41.7045C30.8666 41.5508 31.1963 41.3257 31.4722 41.0425L44.8845 27.3547C45.4398 26.7819 45.7503 26.0155 45.7503 25.2178C45.7503 24.4201 45.4398 23.6536 44.8845 23.0809L43.6912 21.8637C43.4161 21.5799 43.0866 21.3544 42.7224 21.2007C42.3582 21.0469 41.9668 20.968 41.5715 20.9688C41.1759 20.968 40.7842 21.0468 40.4197 21.2006C40.0552 21.3544 39.7254 21.5799 39.4498 21.8637L30.1092 31.395C29.9072 31.5948 29.6346 31.7068 29.3505 31.7068C29.0664 31.7068 28.7938 31.5948 28.5918 31.395L25.3636 28.0991ZM31.4722 32.7284L40.8128 23.1972C40.9112 23.0952 41.0291 23.0141 41.1596 22.9587C41.29 22.9033 41.4303 22.8748 41.572 22.8748C41.7137 22.8748 41.8539 22.9033 41.9843 22.9587C42.1148 23.0141 42.2327 23.0952 42.3311 23.1972L43.5244 24.4153C43.7331 24.6303 43.8498 24.9181 43.8498 25.2178C43.8498 25.5174 43.7331 25.8053 43.5244 26.0203L30.1102 39.7091C29.9082 39.9089 29.6355 40.0209 29.3515 40.0209C29.0674 40.0209 28.7948 39.9089 28.5928 39.7091L21.2899 32.2557C21.0813 32.0406 20.9645 31.7528 20.9645 31.4531C20.9645 31.1535 21.0813 30.8656 21.2899 30.6506L22.4832 29.4325C22.6855 29.2329 22.9582 29.121 23.2424 29.121C23.5266 29.121 23.7993 29.2329 24.0016 29.4325L27.2308 32.7284C27.7972 33.2832 28.5586 33.5939 29.3515 33.5939C30.1444 33.5939 30.9057 33.2832 31.4722 32.7284Z" fill="#FFB34A"/>
<path d="M8.57812 13.3438C8.57823 13.5666 8.65637 13.7823 8.79898 13.9534C8.94158 14.1246 9.13963 14.2404 9.35873 14.2807C15.4025 15.394 16.0592 16.0507 17.1744 22.0963C17.2152 22.315 17.3312 22.5125 17.5023 22.6546C17.6734 22.7967 17.8889 22.8745 18.1113 22.8745C18.3337 22.8745 18.5491 22.7967 18.7202 22.6546C18.8913 22.5125 19.0074 22.315 19.0482 22.0963C20.1615 16.0526 20.8182 15.3959 26.8638 14.2807C27.0825 14.2399 27.2799 14.1238 27.4221 13.9527C27.5642 13.7816 27.642 13.5662 27.642 13.3438C27.642 13.1214 27.5642 12.9059 27.4221 12.7348C27.2799 12.5637 27.0825 12.4477 26.8638 12.4069C20.8201 11.2936 20.1634 10.6369 19.0482 4.59124C19.0074 4.37259 18.8913 4.17512 18.7202 4.03301C18.5491 3.8909 18.3337 3.81311 18.1113 3.81311C17.8889 3.81311 17.6734 3.8909 17.5023 4.03301C17.3312 4.17512 17.2152 4.37259 17.1744 4.59124C16.0611 10.635 15.4044 11.2917 9.35873 12.4069C9.13963 12.4472 8.94158 12.563 8.79898 12.7341C8.65637 12.9053 8.57823 13.121 8.57812 13.3438ZM18.1094 8.85552C18.3924 9.93437 18.9572 10.9186 19.7459 11.7072C20.5346 12.4959 21.5188 13.0607 22.5976 13.3438C21.5188 13.6268 20.5346 14.1916 19.7459 14.9803C18.9572 15.769 18.3924 16.7532 18.1094 17.832C17.8263 16.7532 17.2615 15.769 16.4728 14.9803C15.6842 14.1916 14.7 13.6268 13.6211 13.3438C14.7 13.0607 15.6842 12.4959 16.4728 11.7072C17.2615 10.9186 17.8263 9.93437 18.1094 8.85552Z" fill="#FFB34A"/>
<path d="M56.4069 46.7194C50.3631 45.6061 49.7064 44.9494 48.5913 38.9037C48.5504 38.6851 48.4344 38.4876 48.2633 38.3455C48.0922 38.2034 47.8768 38.1256 47.6543 38.1256C47.4319 38.1256 47.2165 38.2034 47.0454 38.3455C46.8743 38.4876 46.7582 38.6851 46.7174 38.9037C45.6042 44.9475 44.9475 45.6042 38.9018 46.7194C38.6831 46.7602 38.4857 46.8762 38.3436 47.0473C38.2014 47.2184 38.1237 47.4339 38.1237 47.6563C38.1237 47.8787 38.2014 48.0941 38.3436 48.2652C38.4857 48.4363 38.6831 48.5524 38.9018 48.5932C44.9455 49.7065 45.6023 50.3632 46.7174 56.4088C46.7582 56.6275 46.8743 56.8249 47.0454 56.9671C47.2165 57.1092 47.4319 57.187 47.6543 57.187C47.8768 57.187 48.0922 57.1092 48.2633 56.9671C48.4344 56.8249 48.5504 56.6275 48.5913 56.4088C49.7045 50.3651 50.3612 49.7084 56.4069 48.5932C56.6255 48.5524 56.823 48.4363 56.9651 48.2652C57.1072 48.0941 57.185 47.8787 57.185 47.6563C57.185 47.4339 57.1072 47.2184 56.9651 47.0473C56.823 46.8762 56.6255 46.7602 56.4069 46.7194ZM47.6562 52.1445C47.3732 51.0657 46.8084 50.0815 46.0197 49.2928C45.231 48.5041 44.2468 47.9393 43.168 47.6563C44.2468 47.3732 45.231 46.8084 46.0197 46.0197C46.8084 45.2311 47.3732 44.2469 47.6562 43.168C47.9393 44.2469 48.5041 45.2311 49.2928 46.0197C50.0815 46.8084 51.0657 47.3732 52.1445 47.6563C51.0657 47.9393 50.0815 48.5041 49.2928 49.2928C48.5041 50.0815 47.9393 51.0657 47.6562 52.1445Z" fill="#FFB34A"/>
</svg>
