<svg width="62" height="62" viewBox="0 0 62 62" fill="none" xmlns="http://www.w3.org/2000/svg">
<path d="M2.54297 25.2068C2.14215 25.2068 1.81641 24.8811 1.81641 24.4803C1.81641 24.0794 2.14215 23.7537 2.54297 23.7537H13.5177C13.9185 23.7537 14.2443 24.0794 14.2443 24.4803C14.2443 24.8811 13.9185 25.2068 13.5177 25.2068H2.54297ZM11.2145 34.7103C11.2145 34.3094 10.8888 33.9837 10.4879 33.9837H2.78758C2.38676 33.9837 2.06102 34.3094 2.06102 34.7103C2.06102 35.1111 2.38676 35.4368 2.78758 35.4368H10.4879C10.89 35.4368 11.2145 35.1123 11.2145 34.7103ZM14.0638 46.3486C14.0638 45.9478 13.7381 45.622 13.3373 45.622H7.38187C6.98105 45.622 6.65531 45.9478 6.65531 46.3486C6.65531 46.7494 6.98105 47.0751 7.38187 47.0751H13.3373C13.7381 47.0751 14.0638 46.7494 14.0638 46.3486ZM60.1836 35.9164C60.1836 48.2243 50.1704 58.2364 37.8636 58.2364C32.3308 58.2364 27.263 56.2117 23.359 52.8671C23.2948 52.8852 23.2282 52.8961 23.1592 52.8961H14.4017C14.0009 52.8961 13.6751 52.5704 13.6751 52.1696C13.6751 51.7687 14.0009 51.443 14.4017 51.443H21.8453C19.134 48.6469 17.1481 45.1461 16.1878 41.2457H7.10699C6.70617 41.2457 6.38043 40.9199 6.38043 40.5191C6.38043 40.1183 6.70617 39.7926 7.10699 39.7926H15.8802C15.6586 38.5332 15.5424 37.2387 15.5424 35.9164C15.5424 33.7427 15.856 31.6405 16.4385 29.6522H11.2266C10.8258 29.6522 10.5 29.3264 10.5 28.9256C10.5 28.5248 10.8258 28.199 11.2266 28.199H16.918C17.6276 26.2797 18.5939 24.4839 19.7758 22.8528L17.8492 20.9262L17.5053 21.2701C17.0996 21.6769 16.5571 21.8998 15.9795 21.8998C15.4019 21.8998 14.8606 21.6757 14.4538 21.2701L12.2692 19.0855C11.4276 18.2439 11.4276 16.8756 12.2692 16.0352L17.9546 10.3498C18.3614 9.94295 18.9027 9.72014 19.4804 9.72014C20.058 9.72014 20.5993 9.94417 21.0061 10.3498L23.1895 12.5331C23.5963 12.94 23.8191 13.4813 23.8191 14.0589C23.8191 14.6365 23.5951 15.1778 23.1895 15.5847L22.8722 15.902L24.7988 17.8286C27.5621 15.8269 30.8002 14.4428 34.3095 13.8785V11.166H33.8227C32.6336 11.166 31.6648 10.1985 31.6648 9.00811V5.92022C31.6648 4.73108 32.6323 3.76233 33.8227 3.76233H41.8633C43.0525 3.76233 44.0212 4.72987 44.0212 5.92022V9.00932C44.0212 10.1985 43.0537 11.1672 41.8633 11.1672H41.4141V13.8809C52.04 15.5871 60.1836 24.8181 60.1836 35.9164ZM41.8645 9.71288C42.2532 9.71288 42.5693 9.39682 42.5693 9.00811V5.92022C42.5693 5.53151 42.2532 5.21545 41.8645 5.21545H33.8239C33.4352 5.21545 33.1191 5.53151 33.1191 5.92022V9.00932C33.1191 9.39803 33.4352 9.71409 33.8239 9.71409H41.8645V9.71288ZM35.7638 11.166V13.6956C36.4553 13.6303 37.1552 13.5964 37.8624 13.5964C38.5696 13.5964 39.2707 13.6315 39.9609 13.6956V11.166H35.7638ZM22.1638 14.5578C22.2958 14.4258 22.3684 14.249 22.3684 14.0601C22.3684 13.8712 22.2958 13.6944 22.1638 13.5624L19.9805 11.3779C19.8485 11.2459 19.6717 11.1733 19.4828 11.1733C19.2939 11.1733 19.1171 11.2459 18.9851 11.3779L13.2997 17.0633C13.0248 17.3381 13.0248 17.785 13.2997 18.0599L15.483 20.2432C15.615 20.3752 15.7918 20.4478 15.9807 20.4478C16.1696 20.4478 16.3464 20.3752 16.4784 20.2432L22.1638 14.5578ZM20.6731 21.6951C21.568 20.6149 22.5622 19.6208 23.6423 18.7259L21.8465 16.9301L18.8773 19.8993L20.6731 21.6951ZM58.7305 35.9164C58.7305 24.41 49.3699 15.0495 37.8636 15.0495C26.3573 15.0495 16.9955 24.41 16.9955 35.9164C16.9955 47.4227 26.3561 56.7832 37.8636 56.7832C49.3699 56.7844 58.7305 47.4227 58.7305 35.9164ZM55.1025 35.9164C55.1025 45.4222 47.3695 53.1553 37.8636 53.1553C28.3577 53.1553 20.6235 45.4222 20.6235 35.9164C20.6235 26.4105 28.3565 18.6774 37.8624 18.6774C47.3682 18.6774 55.1025 26.4105 55.1025 35.9164ZM53.6312 36.6429H50.5954C50.1946 36.6429 49.8688 36.3172 49.8688 35.9164C49.8688 35.5155 50.1946 35.1898 50.5954 35.1898H53.6312C53.458 31.3838 51.9311 27.9254 49.5213 25.2855L47.3791 27.4277C47.2375 27.5694 47.051 27.6408 46.8657 27.6408C46.6804 27.6408 46.4939 27.5694 46.3523 27.4277C46.0689 27.1443 46.0689 26.6842 46.3523 26.3996L48.4944 24.2574C45.8546 21.8477 42.3949 20.3207 38.5902 20.1475V23.1833C38.5902 23.5842 38.2644 23.9099 37.8636 23.9099C37.4628 23.9099 37.137 23.5842 37.137 23.1833V20.1475C33.3311 20.3207 29.8726 21.8477 27.2328 24.2574L29.3749 26.3996C29.6583 26.683 29.6583 27.1431 29.3749 27.4277C29.2332 27.5694 29.0468 27.6408 28.8615 27.6408C28.6762 27.6408 28.4897 27.5694 28.348 27.4277L26.2059 25.2855C23.7961 27.9254 22.2691 31.385 22.096 35.1898H25.1318C25.5326 35.1898 25.8584 35.5155 25.8584 35.9164C25.8584 36.3172 25.5326 36.6429 25.1318 36.6429H22.096C22.2691 40.4489 23.7961 43.9073 26.2059 46.5472L28.348 44.405C28.6314 44.1217 29.0916 44.1217 29.3749 44.405C29.6583 44.6884 29.6583 45.1485 29.3749 45.4331L27.2328 47.5753C29.8726 49.985 33.3323 51.512 37.137 51.6852V48.6494C37.137 48.2485 37.4628 47.9228 37.8636 47.9228C38.2644 47.9228 38.5902 48.2485 38.5902 48.6494V51.6852C42.3961 51.512 45.8546 49.985 48.4944 47.5753L46.3523 45.4343C46.0689 45.151 46.0689 44.6908 46.3523 44.4062C46.6356 44.1229 47.0958 44.1229 47.3791 44.4062L49.5213 46.5484C51.9311 43.9073 53.458 40.4489 53.6312 36.6429ZM43.2825 32.958C43.4012 33.216 43.3588 33.5187 43.1748 33.7342L33.75 44.7635C33.6071 44.9306 33.4037 45.0178 33.1979 45.0178C33.0683 45.0178 32.9375 44.9826 32.82 44.9112C32.5161 44.7259 32.3914 44.3457 32.5258 44.0163L35.403 36.9868H33.1034C32.8515 36.9868 32.6178 36.856 32.4858 36.6429C32.3538 36.4286 32.3417 36.161 32.4531 35.9369L36.7992 27.2206C36.9227 26.9736 37.1746 26.8186 37.4495 26.8186H37.4567L42.2411 26.8682C42.5039 26.8706 42.7461 27.016 42.872 27.2473C42.998 27.4785 42.9895 27.7595 42.849 27.9823L39.9803 32.5378H42.6238C42.9071 32.5354 43.1639 32.7001 43.2825 32.958ZM41.0459 33.9885H38.6628C38.3988 33.9885 38.1542 33.8444 38.0271 33.6131C37.8987 33.3819 37.9072 33.0985 38.0489 32.8745L40.9273 28.3056L37.8975 28.2741L34.278 35.5325H36.4855C36.7277 35.5325 36.9542 35.6536 37.0886 35.8546C37.223 36.0556 37.2496 36.3111 37.1576 36.5351L35.5834 40.3823L41.0459 33.9885Z" fill="#FFB34A"/>
</svg>
