<svg width="61" height="61" viewBox="0 0 61 61" fill="none" xmlns="http://www.w3.org/2000/svg">
<g clip-path="url(#clip0_2004_65)">
<path d="M58.0918 35.7295H57.1789V27.507C57.1789 26.2053 56.5311 25.0527 55.5416 24.3524V23.2329C55.5416 21.6089 54.2204 20.2877 52.5964 20.2877H51.9148L54.5227 16.4609C55.3968 15.1782 55.0644 13.4234 53.7818 12.5492L36.0857 0.489757C35.4644 0.0662118 34.7155 -0.0901007 33.9763 0.0501279C33.2375 0.190118 32.5974 0.609374 32.1739 1.23081L16.9 23.6439H12.6497L13.6751 13.2632C13.6867 13.1462 13.7627 13.0448 13.8687 13.0049C15.1899 12.5068 16.3348 11.5765 17.0925 10.3856C17.1522 10.2918 17.2648 10.2382 17.3813 10.25L24.0478 10.9086C24.5258 10.955 24.951 10.6068 24.9982 10.1291C25.0454 9.65131 24.6964 9.22586 24.2187 9.17868L17.5522 8.52007C16.7784 8.4443 16.0404 8.80089 15.6258 9.45235C15.0687 10.328 14.2268 11.0119 13.2555 11.3781C12.5243 11.6538 12.0223 12.3105 11.9451 13.0922L10.9028 23.6438H9.79445L11.4162 7.22573C11.4746 6.63479 12.002 6.20064 12.5937 6.25986L26.0654 7.59066C26.5431 7.63676 26.9686 7.28887 27.0158 6.81112C27.0629 6.33337 26.714 5.90792 26.2362 5.86074L12.7645 4.52993C11.22 4.37755 9.83878 5.50999 9.68616 7.05476L8.37895 20.2877H6.1528C4.52892 20.2877 3.20765 21.6089 3.20765 23.2329V23.9966C1.87911 24.6082 0.954102 25.9512 0.954102 27.507V57.1367C0.954102 59.267 2.68712 61 4.81747 61H53.3157C55.4459 61 57.1789 59.267 57.1789 57.1367V48.9143H58.0918C59.1693 48.9143 60.0458 48.0378 60.0458 46.9604V37.6836C60.0459 36.606 59.1693 35.7295 58.0918 35.7295ZM52.5964 22.0262C53.262 22.0261 53.8032 22.5675 53.8032 23.233V23.6758C53.6433 23.6556 53.4809 23.644 53.3157 23.644H49.6277L50.7301 22.0262H52.5964ZM33.6104 2.20967C33.7725 1.97199 34.0173 1.81162 34.2999 1.75801C34.3674 1.74526 34.4352 1.73883 34.5026 1.73883C34.7166 1.73883 34.9259 1.80292 35.1067 1.92612L52.8028 13.9855C53.2934 14.32 53.4207 14.9912 53.0863 15.4818L47.5241 23.6437H46.1893L48.9163 19.6421C49.3586 18.9931 49.395 18.1672 49.0111 17.4866C48.501 16.5823 48.2942 15.5176 48.4288 14.4883C48.5289 13.7226 48.1919 12.9751 47.5495 12.5374L38.3759 6.28583C37.7334 5.84799 36.9144 5.80784 36.2384 6.1811C35.33 6.68269 34.2633 6.87963 33.2351 6.7357C32.4726 6.62872 31.6993 6.97303 31.2636 7.61222L20.3385 23.6438H19.0037L33.6104 2.20967ZM33.9932 16.9701C30.208 16.9701 27.1008 19.9216 26.8476 23.6438H22.4419L32.6998 8.5912H32.7C32.7582 8.50554 32.8548 8.45455 32.9541 8.45455C32.9673 8.45455 32.9805 8.4555 32.9938 8.45729C34.3922 8.65292 35.8428 8.38533 37.0785 7.70301C37.1757 7.64916 37.3006 7.6569 37.3968 7.72243L46.5705 13.9741C46.6666 14.0396 46.7194 14.153 46.7051 14.2631C46.5219 15.6629 46.8033 17.1109 47.4971 18.3407C47.5527 18.4395 47.5459 18.566 47.4799 18.6631L44.0859 23.6437H41.1392C40.8858 19.9216 37.7787 16.9701 33.9932 16.9701ZM39.396 23.6439H28.5906C28.8396 20.8812 31.1669 18.7086 33.9932 18.7086C36.8197 18.7085 39.1471 20.8812 39.396 23.6439ZM4.94603 23.2329C4.94603 22.5673 5.48728 22.026 6.1528 22.026H8.20726L8.0475 23.6438H4.94603V23.2329ZM2.69248 27.507C2.69248 26.3354 3.64573 25.3822 4.81747 25.3822H53.3157C54.4874 25.3822 55.4406 26.3354 55.4406 27.507V29.9189H2.69248V27.507ZM55.4406 57.1367C55.4406 58.3083 54.4874 59.2616 53.3157 59.2616H4.81747C3.64573 59.2616 2.69248 58.3083 2.69248 57.1367V54.7248H7.37971C7.85985 54.7248 8.24884 54.3357 8.24884 53.8557C8.24884 53.3757 7.85973 52.9866 7.37971 52.9866H2.69248V31.6573H55.4406V35.7295H47.1763H47.1761C44.5722 35.7295 42.3166 37.2474 41.2461 39.4445C41.2426 39.4518 41.2385 39.459 41.2348 39.4664C41.2258 39.4851 41.2179 39.5045 41.2091 39.5233C41.0816 39.7941 40.9708 40.0745 40.8806 40.3637C40.8804 40.3646 40.8801 40.3653 40.8799 40.3661C40.6875 40.9843 40.5837 41.6412 40.5837 42.3219C40.5837 45.957 43.541 48.9143 47.176 48.9143H47.1761H55.4404V52.9866H12.9452C12.4651 52.9866 12.0761 53.3757 12.0761 53.8557C12.0761 54.3357 12.4652 54.7248 12.9452 54.7248H55.4406V57.1367ZM58.3076 46.9603C58.3076 47.0792 58.2108 47.176 58.0918 47.176H47.1764C45.3362 47.176 43.7319 46.1467 42.909 44.6337C42.8716 44.565 42.8358 44.4952 42.8016 44.4245C42.7334 44.2831 42.6718 44.1379 42.6173 43.9892C42.4265 43.469 42.3223 42.9074 42.3223 42.3219C42.3223 41.7365 42.4266 41.1749 42.6173 40.6547C42.6719 40.5061 42.7335 40.3609 42.8016 40.2193C42.8358 40.1487 42.8716 40.0789 42.909 40.0101C43.7319 38.4972 45.3362 37.4679 47.1764 37.4679H58.0918C58.2107 37.4679 58.3076 37.5647 58.3076 37.6836V46.9603Z" fill="#FFB34A"/>
<path d="M47.38 38.7954C45.4353 38.7954 43.8534 40.3775 43.8534 42.322C43.8534 44.2665 45.4353 45.8484 47.38 45.8484C49.3246 45.8484 50.9065 44.2665 50.9065 42.322C50.9065 40.3775 49.3246 38.7954 47.38 38.7954ZM47.38 44.11C46.3939 44.11 45.5918 43.3079 45.5918 42.322C45.5918 41.3361 46.3939 40.5338 47.38 40.5338C48.366 40.5338 49.1681 41.336 49.1681 42.322C49.1681 43.308 48.366 44.11 47.38 44.11Z" fill="#FFB34A"/>
</g>
<defs>
<clipPath id="clip0_2004_65">
<rect width="61" height="61" fill="white"/>
</clipPath>
</defs>
</svg>
