<svg width="68" height="68" viewBox="0 0 68 68" fill="none" xmlns="http://www.w3.org/2000/svg">
<path d="M56.0468 4.25H22.0468C20.638 4.25051 19.287 4.81038 18.2908 5.80656C17.2947 6.80273 16.7348 8.15369 16.7343 9.5625V34.0425C13.9714 34.3088 11.4067 35.5948 9.5405 37.6495C7.6743 39.7043 6.64038 42.3805 6.64038 45.1562C6.64038 47.932 7.6743 50.6082 9.5405 52.663C11.4067 54.7177 13.9714 56.0037 16.7343 56.27V58.4375C16.7348 59.8463 17.2947 61.1973 18.2908 62.1934C19.287 63.1896 20.638 63.7495 22.0468 63.75H47.5468C47.8291 63.7512 48.1004 63.6404 48.3012 63.4419L61.0193 51.7863C61.2314 51.5789 61.3535 51.2965 61.3593 51V9.5625C61.3588 8.15369 60.7989 6.80273 59.8027 5.80656C58.8065 4.81038 57.4556 4.25051 56.0468 4.25ZM17.7968 54.1875C16.0106 54.1875 14.2645 53.6578 12.7793 52.6655C11.2941 51.6731 10.1366 50.2626 9.453 48.6124C8.76944 46.9621 8.59059 45.1462 8.93907 43.3943C9.28754 41.6424 10.1477 40.0332 11.4107 38.7702C12.6738 37.5072 14.283 36.647 16.0349 36.2985C17.7868 35.9501 19.6026 36.1289 21.2529 36.8125C22.9031 37.496 24.3136 38.6536 25.306 40.1388C26.2984 41.6239 26.828 43.37 26.828 45.1562C26.8264 47.551 25.8744 49.8472 24.1811 51.5405C22.4877 53.2339 20.1915 54.1859 17.7968 54.1875ZM48.6093 60.2756V54.1875C48.6109 53.6244 48.8353 53.0849 49.2335 52.6867C49.6317 52.2886 50.1712 52.0641 50.7343 52.0625H57.5662L48.6093 60.2756ZM59.2343 49.9375H50.7343C50.1761 49.9373 49.6234 50.0472 49.1077 50.2607C48.592 50.4742 48.1234 50.7873 47.7287 51.1819C47.334 51.5766 47.021 52.0452 46.8075 52.5609C46.5939 53.0766 46.4841 53.6293 46.4843 54.1875V61.625H22.0468C21.2022 61.6225 20.3929 61.2859 19.7956 60.6887C19.1984 60.0914 18.8618 59.2821 18.8593 58.4375V56.27C21.6222 56.0037 24.1869 54.7177 26.0531 52.663C27.9193 50.6082 28.9532 47.932 28.9532 45.1562C28.9532 42.3805 27.9193 39.7043 26.0531 37.6495C24.1869 35.5948 21.6222 34.3088 18.8593 34.0425V9.5625C18.8617 8.71788 19.1984 7.90856 19.7956 7.31132C20.3928 6.71408 21.2022 6.37746 22.0468 6.375H56.0468C56.8914 6.37746 57.7007 6.71408 58.298 7.31132C58.8952 7.90856 59.2318 8.71788 59.2343 9.5625V49.9375Z" fill="#2C98F0"/>
<path d="M51.7969 28.688H26.2969C26.0151 28.688 25.7448 28.7999 25.5456 28.9992C25.3463 29.1984 25.2344 29.4687 25.2344 29.7505C25.2344 30.0323 25.3463 30.3025 25.5456 30.5018C25.7448 30.701 26.0151 30.813 26.2969 30.813H51.7969C52.0787 30.813 52.3489 30.701 52.5482 30.5018C52.7474 30.3025 52.8594 30.0323 52.8594 29.7505C52.8594 29.4687 52.7474 29.1984 52.5482 28.9992C52.3489 28.7999 52.0787 28.688 51.7969 28.688Z" fill="#2C98F0"/>
<path d="M26.2969 22.313H47.5469C47.8287 22.313 48.0989 22.201 48.2982 22.0018C48.4974 21.8025 48.6094 21.5323 48.6094 21.2505C48.6094 20.9687 48.4974 20.6984 48.2982 20.4992C48.0989 20.2999 47.8287 20.188 47.5469 20.188H26.2969C26.0151 20.188 25.7448 20.2999 25.5456 20.4992C25.3463 20.6984 25.2344 20.9687 25.2344 21.2505C25.2344 21.5323 25.3463 21.8025 25.5456 22.0018C25.7448 22.201 26.0151 22.313 26.2969 22.313Z" fill="#2C98F0"/>
<path d="M51.7969 11.687L26.2969 11.6875C26.0151 11.6875 25.7448 11.7995 25.5456 11.9987C25.3463 12.198 25.2344 12.4682 25.2344 12.75C25.2344 13.0318 25.3463 13.3021 25.5456 13.5013C25.7448 13.7006 26.0151 13.8125 26.2969 13.8125L51.7969 13.812C52.0787 13.812 52.3489 13.7001 52.5482 13.5008C52.7474 13.3016 52.8594 13.0313 52.8594 12.7495C52.8594 12.4677 52.7474 12.1975 52.5482 11.9982C52.3489 11.799 52.0787 11.687 51.7969 11.687Z" fill="#2C98F0"/>
<path d="M43.2969 47.7427H34.7969C34.5151 47.7427 34.2448 47.8546 34.0456 48.0539C33.8463 48.2531 33.7344 48.5234 33.7344 48.8052C33.7344 49.087 33.8463 49.3572 34.0456 49.5565C34.2448 49.7557 34.5151 49.8677 34.7969 49.8677H43.2969C43.5787 49.8677 43.8489 49.7557 44.0482 49.5565C44.2474 49.3572 44.3594 49.087 44.3594 48.8052C44.3594 48.5234 44.2474 48.2531 44.0482 48.0539C43.8489 47.8546 43.5787 47.7427 43.2969 47.7427Z" fill="#2C98F0"/>
<path d="M51.7969 39.2427H34.7969C34.5151 39.2427 34.2448 39.3546 34.0456 39.5539C33.8463 39.7531 33.7344 40.0234 33.7344 40.3052C33.7344 40.587 33.8463 40.8572 34.0456 41.0565C34.2448 41.2557 34.5151 41.3677 34.7969 41.3677H51.7969C52.0787 41.3677 52.3489 41.2557 52.5482 41.0565C52.7474 40.8572 52.8594 40.587 52.8594 40.3052C52.8594 40.0234 52.7474 39.7531 52.5482 39.5539C52.3489 39.3546 52.0787 39.2427 51.7969 39.2427Z" fill="#2C98F0"/>
<path d="M20.7095 41.1496L16.8372 47.0582L13.9512 44.9259C13.7242 44.7648 13.4431 44.6992 13.1683 44.7432C12.8935 44.7871 12.6469 44.9371 12.4815 45.1609C12.3161 45.3848 12.2451 45.6645 12.2838 45.9402C12.3224 46.2158 12.4677 46.4652 12.6883 46.6349L16.4787 49.4348C16.5949 49.5207 16.7275 49.582 16.8682 49.6149C17.009 49.6479 17.155 49.6517 17.2973 49.6263C17.4396 49.6008 17.5752 49.5466 17.6958 49.4669C17.8164 49.3873 17.9195 49.2838 17.9988 49.163L22.4868 42.3149C22.6347 42.0792 22.6843 41.7949 22.625 41.5231C22.5656 41.2513 22.402 41.0136 22.1693 40.861C21.9367 40.7085 21.6534 40.6532 21.3805 40.7072C21.1075 40.7611 20.8666 40.92 20.7095 41.1496Z" fill="#2C98F0"/>
</svg>
