<svg width="66" height="66" viewBox="0 0 66 66" fill="none" xmlns="http://www.w3.org/2000/svg">
<path d="M54.617 43.2937C52.2544 39.57 43.9744 36.1998 37.7283 34.1172C36.8877 33.9637 36.0794 34.6325 35.2609 34.7032C32.9633 35.1828 31.0021 34.942 28.9586 34.1454C28.7159 34.0477 28.451 34.0467 28.2124 34.1363C25.8674 34.9161 23.1505 35.9332 20.7962 36.9582C19.4704 37.4294 20.233 39.3832 21.5374 38.8847C22.4911 38.4729 23.4627 38.0901 24.4306 37.7104C24.3572 39.9986 25.0977 42.2981 26.5215 44.0929C26.7209 44.3446 27.021 44.4831 27.3291 44.4831C28.9566 44.0511 30.503 43.3305 31.9678 42.8949V46.4459C31.9678 47.0154 32.429 47.4771 32.999 47.4771C33.569 47.4771 34.0303 47.0154 34.0303 46.4459V42.8956C35.4875 43.3286 37.0392 44.0509 38.6669 44.4832C38.975 44.4831 39.2751 44.3446 39.4745 44.0929C40.9022 42.2933 41.6425 39.9864 41.5646 37.692C47.5659 40.0313 51.6113 42.4123 52.8798 44.4045C53.9221 46.027 54.5515 50.1278 54.6542 55.9517C54.6875 57.8501 53.7338 59.5515 52.2725 60.19C42.4216 61.6798 31.7483 59.6578 22.4025 56.2815C22.2968 53.6007 23.2736 50.8917 24.9887 49.1303C31.6042 49.6454 37.9508 52.1475 43.3699 56.3838C44.4474 57.1964 45.6973 55.615 44.6408 54.7583C38.7686 50.1696 31.862 47.5003 24.6674 47.0401C23.8099 47.0313 23.3294 47.9609 22.8031 48.5238C22.1713 47.7606 21.4075 47.1031 20.54 46.5663L16.4517 23.2312C16.3097 22.415 15.8575 21.703 15.1797 21.2266C13.0026 19.6262 9.83169 21.6509 10.3569 24.2973C10.3568 24.2972 14.0092 45.1862 14.0092 45.1862C13.6915 45.2532 13.4189 45.4591 13.2824 45.7571C11.8634 48.8392 11.7728 52.2996 13.0135 56.0414C13.1434 56.4346 13.4959 56.7116 13.9088 56.7448L20.3954 57.2604C20.5126 57.5807 20.7334 57.8481 21.046 57.9699C25.7475 59.8024 30.6835 61.1027 35.6987 61.8781C29.0016 62.1614 19.0582 61.2003 14.4153 60.3908C11.7841 59.9393 11.0686 56.8816 11.3852 54.2517C11.6099 52.595 9.22379 52.5041 9.32355 54.1893C8.82863 57.8734 10.4835 61.8664 14.0892 62.4277C23.7957 64.3396 43.8507 64.5528 53.1074 62.0762C55.3139 61.112 56.7641 58.6366 56.7167 55.9155C56.6039 49.5341 55.897 45.2857 54.617 43.2937ZM27.7068 42.2086C26.6213 40.6545 26.4617 38.7591 26.4526 36.9363C26.9437 36.759 27.415 36.5922 27.874 36.4333C27.6947 38.2306 28.6571 40.0273 30.3715 41.2599C29.5135 41.5545 28.6303 41.8667 27.7068 42.2086ZM33.1037 40.2795C31.1732 39.8418 29.766 37.9966 29.9352 36.625C31.8743 37.1125 33.9124 37.1674 36.0608 36.6258C36.2066 38.0341 34.9872 39.5333 33.1037 40.2795ZM38.2892 42.2086C37.3667 41.8672 36.4835 41.5555 35.6245 41.2599C37.3408 40.0266 38.3024 38.2286 38.1218 36.4303C38.6057 36.5976 39.0803 36.7653 39.5448 36.9337C39.5321 38.7565 39.3765 40.6544 38.2892 42.2086ZM12.3891 23.9457C12.1521 22.6238 14.1885 22.2447 14.4194 23.5857C14.4194 23.5857 18.2637 45.5286 18.2637 45.5286C17.5546 45.3103 16.8283 45.1726 16.0925 45.1222L12.3891 23.9457ZM20.3664 55.1894L14.7709 54.7442C13.9773 51.9858 14.0296 49.4389 14.927 47.1564C17.4793 46.9764 20.2174 48.2276 21.6175 50.3786C20.8833 51.8418 20.4586 53.4927 20.3664 55.1894Z" fill="#2C98F0"/>
<path d="M59.8105 15.5083C59.8105 12.0963 57.0349 9.3208 53.623 9.3208H49.4365C48.8665 9.3208 48.4053 9.78254 48.4053 10.3521C48.4053 10.9216 48.8665 11.3833 49.4365 11.3833H53.623C55.8979 11.3833 57.748 13.2338 57.748 15.5083V41.2896C57.748 42.2906 57.3773 43.2654 56.7046 44.0338C56.329 44.4619 56.3723 45.1134 56.8003 45.4891C58.6338 46.7559 59.8953 42.5891 59.8105 41.2896V15.5083Z" fill="#2C98F0"/>
<path d="M8.52588 45.7444C9.3819 45.7666 9.89557 44.6636 9.29724 44.0287C8.62055 43.2659 8.24792 42.2931 8.24792 41.2896V15.5083C8.24792 13.2338 10.0979 11.3833 12.3729 11.3833H16.5493C17.898 11.3693 17.9081 9.33937 16.5493 9.3208H12.3729C8.96094 9.3208 6.18542 12.0963 6.18542 15.5083V41.2896C6.18542 42.7977 6.74234 44.2569 7.75445 45.3974C7.95789 45.627 8.24188 45.7444 8.52588 45.7444Z" fill="#2C98F0"/>
<path d="M45.373 3.1333C45.373 2.56379 44.9117 2.10205 44.3417 2.10205H30.9043C28.9586 2.10205 27.1206 2.88153 25.7661 4.26174C18.7171 3.10756 15.9927 13.7725 21.5733 17.5598L22.0077 23.1682C22.3507 28.7192 27.4608 33.1383 32.998 33.0394C38.7414 33.0396 43.5683 28.7026 43.9882 23.1692L44.4263 17.5587C48.0032 15.2471 48.4232 8.93735 45.3334 5.97559C45.4262 5.46443 45.3465 3.67655 45.373 3.1333ZM24.748 6.22705C25.5108 6.18355 26.3311 6.81644 26.9092 6.07391C27.8981 4.86044 29.3533 4.16455 30.9042 4.16455H43.3105C43.6546 7.41075 41.5755 10.3157 38.1854 10.3521H27.9031C25.434 11.1152 23.4055 13.1877 22.0943 15.3205C19.2995 12.5559 20.736 6.24373 24.748 6.22705ZM42.4786 16.0134L41.9318 23.01C40.7769 33.53 25.251 33.6372 24.0642 23.0085C24.0642 23.0085 23.5893 16.907 23.5893 16.907C24.5457 14.9965 26.1691 13.381 28.1368 12.4146H38.1854C39.432 12.4146 40.6047 12.0946 41.6278 11.5339C42.2987 12.9214 42.604 14.4693 42.4786 16.0134ZM44.51 14.5035C44.3974 13.0243 43.984 11.5942 43.2892 10.2805C43.8258 9.73856 44.2713 9.109 44.6151 8.41979C45.6536 10.1656 45.6076 12.806 44.51 14.5035Z" fill="#2C98F0"/>
</svg>
