<svg width="66" height="66" viewBox="0 0 66 66" fill="none" xmlns="http://www.w3.org/2000/svg">
<path d="M45.1 46.8999C44.5 46.8999 44.1 47.2999 44.1 47.8999C44.1 50.4999 42 52.6999 39.3 52.6999C38.7 52.6999 38.3 53.0999 38.3 53.6999C38.3 54.2999 38.7 54.6999 39.3 54.6999C43 54.6999 46.1 51.6999 46.1 47.8999C46.1 47.3999 45.7 46.8999 45.1 46.8999Z" fill="#2C98F0"/>
<path d="M64 45.5001H60.9V6.30005C60.9 5.70005 60.5 5.30005 59.9 5.30005H6.1C5.5 5.30005 5.1 5.70005 5.1 6.30005V45.5001H2C1.4 45.5001 1 45.9001 1 46.5001C1 51.1001 4.7 54.7001 9.2 54.7001H23.3L25.9 58.0001C27.2 59.7001 29.1 60.6001 31.3 60.6001H44.4C47.9 60.6001 50.7 58.0001 51.1 54.6001H56.8C61.3 54.6001 65 50.9001 65 46.4001C65 45.9001 64.6 45.5001 64 45.5001ZM7.1 7.30005H58.9V45.5001H51.1V37.8001C51.1 34.9001 47.9 32.7001 45 34.4001C44.5 31.2001 40.7 30.3001 38.5 32.0001C37.5 30.3001 35.3 29.3001 33 30.6001V23.8001C33 21.6001 31.2 19.8 29 19.8C26.8 19.8 25 21.6001 25 23.8001V42.0001C24.9 41.9001 21.2 36.2001 16 40.2001C14.6 41.3001 14.3 43.4001 15.4 44.8001L16 45.5001H7.1V7.30005ZM9.2 52.7001C6.1 52.7001 3.5 50.4001 3 47.5001H17.6L21.7 52.7001H9.2ZM49.1 53.9001C49.1 56.5001 47 58.7001 44.3 58.7001H31.3C29.8 58.7001 28.4 58.0001 27.5 56.9001L17.1 43.5001C16.7 42.9001 16.8 42.1001 17.3 41.7001C21.5 38.4001 24.3 44.7001 25.3 45.5001C25.9 46.3001 27.1 45.8001 27.1 44.9001V23.8001C27.1 22.7001 28 21.8001 29.1 21.8001C30.2 21.8001 31.1 22.7001 31.1 23.8001V38.9001C31.1 39.5001 31.5 39.9001 32.1 39.9001C32.7 39.9001 33.1 39.5001 33.1 38.9001V34.0001C33.1 31.3001 37.1 31.3001 37.1 34.0001V38.9001C37.1 39.5001 37.5 39.9001 38.1 39.9001C38.7 39.9001 39.1 39.5001 39.1 38.9001V35.1001C39.1 32.4001 43.1 32.4001 43.1 35.1001V38.9001C43.1 39.5001 43.5 39.9001 44.1 39.9001C44.7 39.9001 45.1 39.5001 45.1 38.9001V37.8001C45.1 35.1001 49.1 35.3001 49.1 37.8001V53.9001ZM56.8 52.7001H51.2V47.5001H60H63C62.4 50.5001 59.9 52.7001 56.8 52.7001Z" fill="#2C98F0"/>
<path d="M28.8 16.2C29.4 16.2 29.8 15.8 29.8 15.2V12C29.8 11.4 29.4 11 28.8 11C28.2 11 27.8 11.4 27.8 12V15.2C27.8 15.8 28.2 16.2 28.8 16.2Z" fill="#2C98F0"/>
<path d="M23.9 16.3001C24.2 16.8001 24.8 17.0001 25.3 16.7001C25.8 16.4001 26 15.8001 25.7 15.3001L24 12.4001C23.7 11.9001 23.1 11.7001 22.6 12.0001C22.1 12.3001 21.9 12.9001 22.2 13.4001L23.9 16.3001Z" fill="#2C98F0"/>
<path d="M32.3 16.7001C32.8 17.0001 33.4 16.8001 33.7 16.3001L35.3 13.4001C35.6 12.9001 35.4 12.3001 34.9 12.0001C34.4 11.7001 33.8 11.9001 33.5 12.4001L31.9 15.3001C31.6 15.8001 31.8 16.4001 32.3 16.7001Z" fill="#2C98F0"/>
<path d="M55 20.6001H42.7C42.1 20.6001 41.7 21.0001 41.7 21.6001C41.7 22.2001 42.1 22.6001 42.7 22.6001H55C55.6 22.6001 56 22.2001 56 21.6001C56 21.1001 55.6 20.6001 55 20.6001Z" fill="#2C98F0"/>
<path d="M40.7 15.6001H55C55.6 15.6001 56 15.2001 56 14.6001C56 14.0001 55.6 13.6001 55 13.6001H40.7C40.1 13.6001 39.7 14.0001 39.7 14.6001C39.7 15.2001 40.2 15.6001 40.7 15.6001Z" fill="#2C98F0"/>
<path d="M55 27.6001H46.7C46.1 27.6001 45.7 28.0001 45.7 28.6001C45.7 29.2001 46.1 29.6001 46.7 29.6001H55C55.6 29.6001 56 29.2001 56 28.6001C56 28.1001 55.6 27.6001 55 27.6001Z" fill="#2C98F0"/>
<path d="M12.6 22.6001H19.6C20.2 22.6001 20.6 22.2001 20.6 21.6001C20.6 21.0001 20.2 20.6001 19.6 20.6001H12.6C12 20.6001 11.6 21.0001 11.6 21.6001C11.6 22.2001 12 22.6001 12.6 22.6001Z" fill="#2C98F0"/>
<path d="M20.6 28.6001C20.6 28.0001 20.2 27.6001 19.6 27.6001H12.6C12 27.6001 11.6 28.0001 11.6 28.6001C11.6 29.2001 12 29.6001 12.6 29.6001H19.6C20.2 29.6001 20.6 29.2001 20.6 28.6001Z" fill="#2C98F0"/>
</svg>
