<svg width="115" height="30" viewBox="0 0 115 30" fill="none" xmlns="http://www.w3.org/2000/svg">
<path d="M91.8717 15C91.8717 16.6533 92.1917 18.12 92.8317 19.4C93.4983 20.6533 94.4183 21.64 95.5917 22.36C96.7917 23.08 98.1917 23.44 99.7917 23.44C101.365 23.44 102.738 23.08 103.912 22.36C105.112 21.64 106.032 20.6533 106.672 19.4C107.338 18.12 107.672 16.6533 107.672 15C107.672 13.3467 107.352 11.8933 106.712 10.64C106.072 9.36 105.165 8.36 103.992 7.64C102.818 6.92 101.418 6.56 99.7917 6.56C98.1917 6.56 96.7917 6.92 95.5917 7.64C94.4183 8.36 93.4983 9.36 92.8317 10.64C92.1917 11.8933 91.8717 13.3467 91.8717 15ZM84.7117 15C84.7117 12.84 85.085 10.8667 85.8317 9.08C86.605 7.29333 87.6717 5.74667 89.0317 4.44C90.3917 3.13333 91.9917 2.13333 93.8317 1.44C95.6717 0.720001 97.6583 0.360001 99.7917 0.360001C101.952 0.360001 103.938 0.720001 105.752 1.44C107.592 2.13333 109.192 3.13333 110.552 4.44C111.912 5.74667 112.965 7.29333 113.712 9.08C114.458 10.8667 114.832 12.84 114.832 15C114.832 17.16 114.458 19.1467 113.712 20.96C112.992 22.7733 111.952 24.3467 110.592 25.68C109.258 27.0133 107.672 28.0533 105.832 28.8C103.992 29.52 101.978 29.88 99.7917 29.88C97.5783 29.88 95.5517 29.52 93.7117 28.8C91.8717 28.0533 90.2717 27.0133 88.9117 25.68C87.5783 24.3467 86.5383 22.7733 85.7917 20.96C85.0717 19.1467 84.7117 17.16 84.7117 15Z" fill="white"/>
<path d="M67.6135 18.88V13.68H81.7735C81.9069 15.92 81.6802 18.0133 81.0935 19.96C80.5069 21.9067 79.6002 23.6267 78.3736 25.12C77.1469 26.6133 75.6135 27.7867 73.7735 28.64C71.9335 29.4667 69.8269 29.88 67.4535 29.88C65.2135 29.88 63.1602 29.5333 61.2935 28.84C59.4269 28.12 57.8135 27.1067 56.4535 25.8C55.0935 24.4667 54.0269 22.8933 53.2535 21.08C52.5069 19.24 52.1335 17.2133 52.1335 15C52.1335 12.7867 52.5202 10.7867 53.2935 9C54.0669 7.18667 55.1602 5.64 56.5735 4.36C57.9869 3.08 59.6402 2.09333 61.5335 1.4C63.4269 0.706667 65.4802 0.360001 67.6935 0.360001C69.6669 0.360001 71.4402 0.640001 73.0135 1.2C74.5869 1.76 75.9735 2.54667 77.1735 3.56C78.4002 4.54667 79.4535 5.69333 80.3335 7L74.3335 10.12C73.6935 9 72.8269 8.08 71.7335 7.36C70.6669 6.61334 69.3202 6.24 67.6935 6.24C66.1469 6.24 64.7202 6.58667 63.4135 7.28C62.1335 7.97333 61.1069 8.97333 60.3335 10.28C59.5869 11.56 59.2135 13.1333 59.2135 15C59.2135 16.84 59.5735 18.44 60.2935 19.8C61.0402 21.1333 62.0402 22.1733 63.2935 22.92C64.5735 23.64 66.0402 24 67.6935 24C68.7069 24 69.6269 23.88 70.4535 23.64C71.2802 23.3733 71.9869 23.0133 72.5735 22.56C73.1602 22.08 73.6535 21.5333 74.0535 20.92C74.4802 20.28 74.8135 19.6 75.0535 18.88H67.6135Z" fill="white"/>
<path d="M26.442 15C26.442 16.6533 26.762 18.12 27.402 19.4C28.0687 20.6533 28.9887 21.64 30.162 22.36C31.362 23.08 32.762 23.44 34.362 23.44C35.9353 23.44 37.3087 23.08 38.482 22.36C39.682 21.64 40.602 20.6533 41.242 19.4C41.9086 18.12 42.242 16.6533 42.242 15C42.242 13.3467 41.922 11.8933 41.282 10.64C40.642 9.36 39.7353 8.36 38.562 7.64C37.3886 6.92 35.9887 6.56 34.362 6.56C32.762 6.56 31.362 6.92 30.162 7.64C28.9887 8.36 28.0687 9.36 27.402 10.64C26.762 11.8933 26.442 13.3467 26.442 15ZM19.282 15C19.282 12.84 19.6553 10.8667 20.402 9.08C21.1753 7.29333 22.242 5.74667 23.602 4.44C24.962 3.13333 26.562 2.13333 28.402 1.44C30.242 0.720001 32.2287 0.360001 34.362 0.360001C36.522 0.360001 38.5087 0.720001 40.322 1.44C42.162 2.13333 43.762 3.13333 45.122 4.44C46.482 5.74667 47.5353 7.29333 48.282 9.08C49.0286 10.8667 49.402 12.84 49.402 15C49.402 17.16 49.0286 19.1467 48.282 20.96C47.562 22.7733 46.522 24.3467 45.162 25.68C43.8286 27.0133 42.242 28.0533 40.402 28.8C38.562 29.52 36.5487 29.88 34.362 29.88C32.1487 29.88 30.122 29.52 28.282 28.8C26.442 28.0533 24.842 27.0133 23.482 25.68C22.1486 24.3467 21.1086 22.7733 20.362 20.96C19.642 19.1467 19.282 17.16 19.282 15Z" fill="white"/>
<path d="M0.959961 1H7.71996V23.2H18.96V29H0.959961V1Z" fill="white"/>
</svg>
