<svg width="33" height="33" viewBox="0 0 33 33" fill="none" xmlns="http://www.w3.org/2000/svg">
<circle cx="16.5" cy="16.5" r="16" stroke="#FFB34A"/>
<path d="M17.9207 18.4154C17.4978 18.6974 17.0065 18.8464 16.5 18.8464C15.9935 18.8464 15.5022 18.6974 15.0793 18.4154L8.11319 13.7712C8.07454 13.7454 8.03689 13.7186 8 13.691V21.301C8 22.1735 8.70806 22.866 9.56496 22.866H23.435C24.3075 22.866 25 22.1579 25 21.301V13.6909C24.963 13.7186 24.9253 13.7455 24.8865 13.7713L17.9207 18.4154Z" fill="#FFB34A"/>
<path d="M8.66572 12.9425L15.6318 17.5868C15.8955 17.7626 16.1978 17.8505 16.5 17.8505C16.8022 17.8505 17.1045 17.7625 17.3682 17.5868L24.3343 12.9425C24.7511 12.6648 25 12.1999 25 11.6982C25 10.8356 24.2982 10.1338 23.4356 10.1338H9.56443C8.70181 10.1338 8 10.8356 8 11.6991C8 12.1999 8.24889 12.6648 8.66572 12.9425V12.9425Z" fill="#FFB34A"/>
</svg>
