<svg width="33" height="33" viewBox="0 0 33 33" fill="none" xmlns="http://www.w3.org/2000/svg">
<circle cx="16.5" cy="16.5" r="16" stroke="#FFB34A"/>
<g clip-path="url(#clip0_2011_276)">
<path d="M24.9636 21.1719C24.9155 21.027 24.6096 20.8136 24.046 20.5321C23.8934 20.4434 23.6758 20.3228 23.3944 20.1699C23.1126 20.0169 22.8569 19.876 22.6277 19.7471C22.3979 19.6184 22.1827 19.4936 21.9817 19.3731C21.9495 19.3489 21.8489 19.2786 21.6799 19.1616C21.5107 19.045 21.368 18.9584 21.2511 18.902C21.1344 18.8458 21.0196 18.8176 20.9069 18.8176C20.746 18.8176 20.5449 18.9324 20.3035 19.1616C20.0622 19.3912 19.8407 19.6405 19.6396 19.9104C19.4384 20.1801 19.2251 20.4295 19 20.6589C18.7745 20.8884 18.5892 21.003 18.4445 21.003C18.3718 21.003 18.2813 20.9828 18.1727 20.9428C18.0642 20.9026 17.9816 20.8681 17.925 20.8404C17.8688 20.812 17.7724 20.7558 17.6355 20.671C17.4983 20.5865 17.422 20.5402 17.406 20.5321C16.3033 19.9202 15.3576 19.2199 14.5687 18.4314C13.78 17.6423 13.0797 16.6967 12.4679 15.5939C12.4599 15.5778 12.4135 15.5013 12.3291 15.3645C12.2445 15.2277 12.1881 15.1312 12.16 15.0747C12.1318 15.0184 12.0976 14.9359 12.0574 14.8272C12.0172 14.7186 11.9971 14.6281 11.9971 14.5556C11.9971 14.4108 12.1118 14.2255 12.3412 14.0001C12.5706 13.7749 12.8202 13.5615 13.0897 13.3604C13.3595 13.1593 13.6088 12.9379 13.8383 12.6965C14.0676 12.455 14.1823 12.2539 14.1823 12.0929C14.1823 11.9803 14.1542 11.8655 14.0979 11.7488C14.0416 11.6319 13.955 11.4892 13.8383 11.3201C13.7215 11.1511 13.6511 11.0505 13.6269 11.0182C13.5063 10.8171 13.3816 10.6018 13.2527 10.3724C13.1238 10.143 12.983 9.88735 12.83 9.60566C12.6772 9.3241 12.5565 9.1067 12.4679 8.95378C12.1863 8.39045 11.973 8.08445 11.8281 8.03633C11.7717 8.01218 11.6872 8 11.5746 8C11.3571 8 11.0735 8.04017 10.7234 8.12078C10.3731 8.20125 10.0975 8.28566 9.89628 8.37434C9.49382 8.54328 9.06726 9.03426 8.61646 9.84709C8.20596 10.6036 8.00073 11.3523 8.00073 12.0927C8.00073 12.3099 8.01481 12.5211 8.04298 12.7266C8.07114 12.9318 8.12147 13.1632 8.19399 13.4209C8.26639 13.6784 8.32479 13.8697 8.36894 13.9943C8.41313 14.119 8.49564 14.3423 8.61641 14.6644C8.73702 14.9864 8.80955 15.1835 8.83369 15.2559C9.11538 16.0448 9.44942 16.749 9.83573 17.3688C10.4713 18.3991 11.3387 19.4638 12.4374 20.5625C13.5361 21.6612 14.6006 22.5285 15.6309 23.1644C16.2506 23.5506 16.9551 23.8846 17.7439 24.1665C17.8163 24.1906 18.0134 24.2629 18.3353 24.3839C18.6573 24.5046 18.8807 24.5871 19.0054 24.6314C19.1301 24.6757 19.3214 24.7342 19.5788 24.8067C19.8366 24.8792 20.0679 24.9295 20.2731 24.9579C20.4785 24.9857 20.6898 25 20.907 25C21.6474 25 22.3961 24.7947 23.1527 24.3842C23.9655 23.9336 24.4563 23.507 24.6253 23.1042C24.7142 22.9032 24.7984 22.6275 24.8789 22.2772C24.9596 21.9272 24.9997 21.6435 24.9997 21.4261C25 21.3131 24.9878 21.2287 24.9636 21.1719Z" fill="#FFB34A"/>
</g>
<defs>
<clipPath id="clip0_2011_276">
<rect width="17" height="17" fill="white" transform="translate(8 8)"/>
</clipPath>
</defs>
</svg>
