<svg width="58" height="58" viewBox="0 0 58 58" fill="none" xmlns="http://www.w3.org/2000/svg">
<path d="M47.2348 10.2352C44.6767 9.43621 41.9209 9.5469 39.4352 10.5485C37.8141 11.154 36.3594 12.1348 35.1904 13.4106C34.0213 14.6865 33.171 16.2211 32.7091 17.8888C32.2905 19.3965 32.1792 20.9729 32.3817 22.5245C32.7543 25.5512 34.4278 30.7807 41.4468 31.7932C41.5648 31.8105 41.6851 31.8043 41.8007 31.7751C41.9164 31.7459 42.0251 31.6941 42.1207 31.6228C42.2163 31.5514 42.2968 31.462 42.3578 31.3594C42.4187 31.2569 42.4589 31.1434 42.4758 31.0253C42.4928 30.9073 42.4864 30.787 42.4568 30.6715C42.4273 30.5559 42.3752 30.4473 42.3036 30.3519C42.2321 30.2565 42.1424 30.1762 42.0397 30.1155C41.937 30.0549 41.8233 30.015 41.7052 29.9984C36.1713 29.201 34.5588 25.3733 34.18 22.3032C34.0081 20.9913 34.1007 19.6582 34.4526 18.3826C34.8429 16.9838 35.5588 15.6972 36.5417 14.6282C37.5246 13.5591 38.7466 12.7379 40.1078 12.2318C42.2036 11.3848 44.5281 11.2898 46.6861 11.9628C52.7537 13.8867 52.5714 20.8686 52.5599 21.1996C52.5599 32.0365 42.4902 46.7233 42.3885 46.8702C42.252 47.0678 42.1996 47.3116 42.2427 47.5478C42.2858 47.7841 42.4209 47.9936 42.6184 48.1303C42.8159 48.2671 43.0595 48.3198 43.2959 48.277C43.5322 48.2342 43.7419 48.0994 43.8789 47.9021C44.3072 47.2826 54.3724 32.6056 54.3715 21.2358C54.375 21.1491 54.6308 12.5805 47.2348 10.2352Z" fill="#9B4AFF" stroke="#9B4AFF"/>
<path d="M18.5728 10.2352C16.0149 9.43621 13.2593 9.5469 10.7736 10.5485C9.1524 11.1538 7.69761 12.1346 6.52842 13.4104C5.35924 14.6863 4.50892 16.221 4.04713 17.8888C3.62863 19.3965 3.51714 20.9728 3.71926 22.5244C4.0923 25.5511 5.76629 30.7807 12.7853 31.7931C13.023 31.8268 13.2644 31.7647 13.4564 31.6207C13.6485 31.4766 13.7756 31.2622 13.8098 31.0246C13.844 30.787 13.7825 30.5455 13.6389 30.3531C13.4953 30.1607 13.2813 30.0331 13.0437 29.9983C7.50932 29.2009 5.89684 25.3733 5.5185 22.3032C5.34583 20.9912 5.43837 19.658 5.79063 18.3826C6.18108 16.9837 6.89712 15.6971 7.88019 14.6281C8.86326 13.559 10.0854 12.7378 11.4467 12.2317C13.5425 11.3847 15.867 11.2896 18.025 11.9627C24.0913 13.8867 23.9099 20.8685 23.8984 21.1995C23.8984 32.0365 13.8279 46.7232 13.7261 46.8701C13.5893 47.0678 13.5365 47.3117 13.5795 47.5482C13.6225 47.7847 13.7577 47.9944 13.9553 48.1313C14.153 48.2681 14.3969 48.3208 14.6334 48.2779C14.8699 48.2349 15.0796 48.0997 15.2165 47.9021C15.6448 47.2826 25.7109 32.6056 25.71 21.2358C25.7135 21.1491 25.968 12.5804 18.5728 10.2352Z" fill="#9B4AFF" stroke="#9B4AFF"/>
</svg>
