<svg width="17" height="17" viewBox="0 0 17 17" fill="none" xmlns="http://www.w3.org/2000/svg">
<g clip-path="url(#clip0_142_259)">
<path d="M16.9555 6.52076C16.8436 6.17653 16.5383 5.93282 16.1785 5.90026L11.2711 5.45474L9.33167 0.914133C9.18848 0.580539 8.86267 0.365234 8.50002 0.365234C8.13738 0.365234 7.81144 0.580539 7.66915 0.914133L5.72972 5.45474L0.821542 5.90026C0.461749 5.93347 0.157079 6.17718 0.044498 6.52076C-0.0674347 6.86498 0.0359377 7.24255 0.308052 7.4812L4.01766 10.734L2.92388 15.5514C2.84385 15.9056 2.98134 16.2719 3.27524 16.4843C3.43322 16.5991 3.61882 16.6564 3.80507 16.6564C3.96513 16.6564 4.12531 16.6139 4.26837 16.5283L8.50002 13.9981L12.7309 16.5283C13.0413 16.7138 13.4315 16.6968 13.7248 16.4843C14.0187 16.2719 14.1562 15.9056 14.0762 15.5514L12.9824 10.734L16.692 7.4812C16.964 7.24255 17.0675 6.86576 16.9555 6.52076Z" fill="#9B4AFF"/>
</g>
<defs>
<clipPath id="clip0_142_259">
<rect width="17" height="17" fill="white"/>
</clipPath>
</defs>
</svg>
