<svg width="33" height="33" viewBox="0 0 33 33" fill="none" xmlns="http://www.w3.org/2000/svg">
<g clip-path="url(#clip0_2011_277)">
<path d="M16.5 33C25.6127 33 33 25.6127 33 16.5C33 7.3873 25.6127 0 16.5 0C7.3873 0 0 7.3873 0 16.5C0 25.6127 7.3873 33 16.5 33Z" fill="#29A71A"/>
<path d="M23.775 9.22476C22.0583 7.49095 19.7785 6.42766 17.3469 6.22668C14.9153 6.0257 12.4919 6.70028 10.5139 8.12872C8.53581 9.55716 7.13331 11.6454 6.55936 14.0169C5.9854 16.3883 6.27776 18.8868 7.38371 21.0616L6.29809 26.3323C6.28682 26.3847 6.2865 26.4389 6.29715 26.4915C6.3078 26.5441 6.32918 26.5939 6.35996 26.6379C6.40506 26.7046 6.46942 26.7559 6.54447 26.7851C6.61952 26.8142 6.70167 26.8198 6.77996 26.801L11.9456 25.5766C14.1143 26.6546 16.5952 26.9282 18.9467 26.3487C21.2982 25.7692 23.3678 24.3742 24.7874 22.4119C26.2069 20.4497 26.8842 18.0475 26.6989 15.6327C26.5135 13.218 25.4774 10.9473 23.775 9.22476ZM22.1643 22.0798C20.9766 23.2642 19.4471 24.0461 17.7914 24.3152C16.1357 24.5843 14.4373 24.3271 12.9356 23.5798L12.2156 23.2235L9.04871 23.9735L9.05809 23.9341L9.71434 20.7466L9.36184 20.051C8.59451 18.544 8.32383 16.8328 8.58856 15.1626C8.85329 13.4923 9.63986 11.9487 10.8356 10.7529C12.338 9.25091 14.3755 8.40714 16.5 8.40714C18.6244 8.40714 20.6619 9.25091 22.1643 10.7529C22.1771 10.7676 22.1909 10.7813 22.2056 10.7941C23.6894 12.3 24.5178 14.3314 24.51 16.4455C24.5023 18.5595 23.6591 20.5848 22.1643 22.0798Z" fill="white"/>
<path d="M21.8831 19.7416C21.495 20.3528 20.8818 21.101 20.1112 21.2866C18.7612 21.6128 16.6893 21.2978 14.1112 18.8941L14.0793 18.866C11.8125 16.7641 11.2237 15.0147 11.3662 13.6272C11.445 12.8397 12.1012 12.1272 12.6543 11.6622C12.7418 11.5876 12.8455 11.5345 12.9571 11.5071C13.0688 11.4797 13.1853 11.4788 13.2974 11.5045C13.4094 11.5302 13.5139 11.5817 13.6025 11.655C13.6911 11.7283 13.7613 11.8213 13.8075 11.9266L14.6418 13.8016C14.6961 13.9232 14.7162 14.0572 14.7 14.1893C14.6838 14.3215 14.6319 14.4467 14.55 14.5516L14.1281 15.0991C14.0376 15.2121 13.9829 15.3497 13.9713 15.494C13.9596 15.6384 13.9913 15.783 14.0625 15.9091C14.2987 16.3235 14.865 16.9328 15.4931 17.4972C16.1981 18.1347 16.98 18.7178 17.475 18.9166C17.6074 18.9707 17.753 18.9839 17.8931 18.9545C18.0331 18.9251 18.1611 18.8544 18.2606 18.7516L18.75 18.2585C18.8444 18.1654 18.9618 18.099 19.0903 18.066C19.2187 18.0331 19.3536 18.0348 19.4812 18.071L21.4631 18.6335C21.5724 18.667 21.6726 18.7251 21.7561 18.8033C21.8395 18.8815 21.9039 18.9778 21.9445 19.0847C21.985 19.1916 22.0005 19.3064 21.9899 19.4203C21.9793 19.5341 21.9427 19.644 21.8831 19.7416Z" fill="white"/>
</g>
<defs>
<clipPath id="clip0_2011_277">
<rect width="33" height="33" fill="white"/>
</clipPath>
</defs>
</svg>
